<?xml version="1.0" encoding="UTF-8"?>
<svg id="Layer_1" data-name="Layer 1" xmlns="http://www.w3.org/2000/svg" viewBox="0 0 377.38 356.32">
  <defs>
    <style>
      .cls-1, .cls-2 {
        fill: none;
      }

      .cls-2 {
        stroke: #212121;
        stroke-miterlimit: 10;
        stroke-width: 10px;
      }

      .cls-3 {
        fill: #212121;
      }

      .cls-4 {
        fill: #c62828;
      }

      .cls-5 {
        fill: #fbd700;
      }
    </style>
  </defs>
  <path class="cls-5" d="M350.15,230.65c-.9.54-1.86,1.1-2.89,1.69l2.89-1.69Z"/>
  <path class="cls-5" d="M365.14,212.53v.46s-.04.1-.06.15h0c.02-.21.04-.41.06-.62h0Z"/>
  <path class="cls-5" d="M345.88,233.14l-3.82,2.23c1.19-.7,2.38-1.4,3.57-2.09.08-.05.16-.09.24-.14h0Z"/>
  <path class="cls-5" d="M365.14,212.99s-.04.1-.06.15h0c.02-.06.04-.11.06-.15Z"/>
  <g>
    <path class="cls-4" d="M130.65,146.3c-11.66-6.79-23.33-13.58-34.99-20.37,0-.05,0-.11,0-.16h.02s33.12,19.44,33.12,19.44l1.85,1.09Z"/>
    <path class="cls-4" d="M131.94,263.77c-2.9-1.69-5.79-3.38-8.69-5.07-6.99-4.09-13.99-8.18-20.99-12.27-4.11-2.51-6.61-6.97-6.61-11.78v-108.88h0s0,0,0,0c0,.05,0,.11,0,.16,11.66,6.79,23.33,13.58,34.99,20.37.21.12.43.25.65.38l.64.38c.08,11.6.14,23.19.17,34.78.08,27.31.02,54.62-.16,81.94h0Z"/>
    <path class="cls-4" d="M191.77,298.69c-10.45-6.09-20.89-12.18-31.34-18.28-.02-18.87-.04-37.74-.06-56.61,5.23,3.06,10.47,6.12,15.71,9.16,5.2,3.03,10.4,6.05,15.61,9.07,0,0,0,0,0,0,.02,11.6.03,23.2.05,34.8v.03c0,7.27.02,14.55.03,21.82h0Z"/>
    <path class="cls-5" d="M288.83,211.42h0s.04-.1.06-.15c-.65,5.92-4.05,11.24-9.24,14.29l-5.74,3.37-2.89,1.69-.45.26-.22.13-.47.27-.24.14c-.08.05-.16.09-.24.14-1.2.69-2.38,1.39-3.57,2.09l-53.18,31.04-2.24,1.3-.78.46-.8.47-2.63,1.53-2.72,1.58-2.81,1.64-3.36,1.96c-.83.49-1.68.98-2.53,1.48l-3.03,1.77v-.03c-.02-11.6-.03-23.2-.05-34.8,0,0,0,0,0,0-5.21-3.02-10.41-6.04-15.61-9.07-5.24-3.05-10.47-6.11-15.71-9.16.02,18.87.04,37.74.06,56.61-9.5-5.55-19-11.09-28.49-16.64.18-27.31.24-54.63.16-81.94-.03-11.59-.09-23.18-.17-34.78,19.95,11.61,39.9,23.22,59.85,34.83v.79l-.1,50.71s0,0,0,0v2.11s0,0,.01,0v-2.12s0,0,0,0c0,.7,0,1.4,0,2.1,0,0,0,0,.01,0v-2.1c20.56-11.78,41.12-23.55,61.68-35.33v-.02s0,0,.02,0v-52h.02s-.01,0-.02,0h0s0,0,0,0c0-.02.02-.05.03-.09.05-.13.09-.26.12-.38.14-.6.09-1.12.06-1.47-.02-.22-.12-1.1-.68-2.09,0,0-.71-1.26-2.07-2.15-1.71-1.12-24.17-14.22-55.4-32.29l.91.34c-.29-.12-.59-.23-.91-.34-1.02-.33-2.21-.52-3.5-.38-1.84.21-3.13,1.03-3.5,1.26-3.57,2.24-46.16,26.05-53.97,32.44-.44.37-1.36,1.15-1.97,2.45-.81,1.75-.61,3.41-.58,3.74-.22-.13-.43-.25-.65-.38-.22-.13-.43-.25-.65-.38l-1.85-1.09-33.12-19.43h0s-.02-.02-.02-.02c.03-1.25.4-1.97.77-2.4.35-.41,1.2-1.13,1.2-1.13,0,0,87.16-54.72,88.46-55.54,0,0,.42-.24.85-.49s.87-.5.92-.52c2.99-1.35,7.37-1.17,9.11-.21,8.59,5.02,74.14,43.29,86.15,50.81.23.14,1.5.95,2.88,2.33.72.72,2.59,2.63,2.73,4v2.76s0,.94,0,.94l.15,59.34v25.14c-.01.2-.03.41-.06.61h0Z"/>
    <path class="cls-5" d="M191.71,233.37s0,0,0,0v2.1s0,0-.01,0c0-.7,0-1.4,0-2.1h0Z"/>
    <path class="cls-5" d="M253.41,145.99v.02s0,0-.02,0c0,0,0-.01,0-.02,0,0,0,0,0,0h0Z"/>
    <path class="cls-5" d="M253.4,146.02h.02s0,51.99,0,51.99c0,0,0,0-.02,0v-52Z"/>
    <path class="cls-5" d="M191.77,182.68c-.02,16.9-.05,33.8-.07,50.7v2.12s0,0-.01,0v-2.11s0,0,0,0l.08-50.7Z"/>
    <g>
      <path class="cls-5" d="M196.37,107.86l-.91-.34c.32.1.62.21.91.34Z"/>
      <path class="cls-5" d="M95.66,125.93c0-.05,0-.11,0-.16,0,0,0,0,0,0,0,0,0,0,0,0h.02v.02l33.12,19.43,1.85,1.09c-11.66-6.79-23.33-13.58-34.99-20.37h0Z"/>
      <path class="cls-5" d="M288.89,125.3c0,.41-.08.76-.15,1.02v-.94s0-2.76,0-2.76c0,.07.04.41.06.76.05.68.07,1.13.09,1.44,0,.27.01.4,0,.48h0Z"/>
      <path class="cls-5" d="M196.37,107.86l-.91-.34c.32.1.62.21.91.34Z"/>
      <path class="cls-1" d="M195.47,107.53c-1.22-.7-2.44-1.41-3.69-2.13"/>
      <path class="cls-1" d="M95.68,125.78s-.01.1-.02.15"/>
    </g>
    <path class="cls-5" d="M265.82,233.64c-4.94,2.92-9.83,5.91-14.83,8.73-7.03,3.96-13.94,8.13-20.92,12.18-4.72,2.73-10.53,6.11-17.43,10.13l53.18-31.04h0Z"/>
    <path class="cls-5" d="M191.7,233.37v2.12s0,0-.01,0v-2.11s0,0,0,0c0,0,0,0,0,0h0Z"/>
    <path class="cls-5" d="M191.74,276.84v.03l-.05.03v-34.86s0,0,0,0c.02,11.6.03,23.2.05,34.8h0Z"/>
    <polygon class="cls-5" points="267.99 278.56 267.99 278.6 267.94 278.62 267.99 278.56"/>
    <path class="cls-3" d="M128.42,157.76l-1.49.19c.59-.1,1.09-.16,1.49-.19Z"/>
    <path class="cls-5" d="M253.41,159.71v38.3s0,0-.02,0v.02c-20.56,11.78-41.12,23.55-61.68,35.33v2.1s0,0-.01,0c0-.7,0-1.4,0-2.1,0,0,0,0,0,0v2.12s0,0-.01,0v-2.11s0,0,0,0l.08-50.7h.02s61.36-33.88,61.36-33.88l.25,10.23.02.68h0Z"/>
    <path class="cls-4" d="M253.41,145.99v52.02s0,0-.02,0c-20.56,11.78-41.12,23.55-61.68,35.33v2.12s0,0-.01,0c0-.7,0-1.4,0-2.1v-.02c.03-16.89.05-33.79.08-50.68v-.79c20.54-11.96,41.08-23.92,61.62-35.89,0,0,0,0,0,0h0Z"/>
    <rect class="cls-2" x="5" y="5" width="367.38" height="346.32" rx="63.56" ry="63.56"/>
  </g>
</svg>